<svg xmlns="http://www.w3.org/2000/svg" width="166.34" height="18.668"><g data-name="Group 1460" fill="#fff"><path data-name="Path 188" d="M126.499 18.668h-5.606a.835.835 0 010-1.67h5.606a7.634 7.634 0 100-15.268h-5.606a.815.815 0 01-.835-.835.909.909 0 01.835-.895h5.606a9.334 9.334 0 110 18.668z"/><path data-name="Path 189" d="M.835 18.608A.815.815 0 010 17.773V.954A.815.815 0 01.835.119a.815.815 0 01.835.835v16.819a.815.815 0 01-.835.835z"/><path data-name="Path 190" d="M97.633 18.608a.815.815 0 01-.835-.835V.954a.835.835 0 111.67 0v16.819a.815.815 0 01-.835.835z"/><path data-name="Path 191" d="M43.896 18.608a.958.958 0 01-.656-.3L29.344 1.491A.848.848 0 0130.656.417l13.9 16.819a.851.851 0 01-.123 1.191.962.962 0 01-.537.181z"/><path data-name="Path 192" d="M165.505 18.668h-9.6a.835.835 0 010-1.67h9.6a.835.835 0 010 1.67z"/><path data-name="Path 193" d="M164.371 10.199h-7.276a.835.835 0 010-1.67h7.276a.815.815 0 01.835.835.853.853 0 01-.835.835z"/><path data-name="Path 194" d="M165.505 1.67h-9.6a.815.815 0 01-.837-.835.815.815 0 01.835-.835h9.6a.815.815 0 01.835.835.815.815 0 01-.833.835z"/><path data-name="Path 195" d="M69.541 18.608a6.128 6.128 0 01-4.712-2.087.848.848 0 011.312-1.074 4.531 4.531 0 003.4 1.491c2.565 0 4.056-1.193 4.056-3.221a2.9 2.9 0 00-1.73-2.5l-4.408-2.45a4.462 4.462 0 01-2.326-3.877C65.128 2.028 67.159.119 70.317.119a5.376 5.376 0 014.235 2.028.811.811 0 01-.179 1.193.811.811 0 01-1.193-.179 3.712 3.712 0 00-2.921-1.372c-2.207 0-3.459 1.133-3.459 3.042a2.807 2.807 0 001.489 2.388l4.413 2.386a4.655 4.655 0 012.624 4c.001 3.035-2.267 5.003-5.785 5.003z"/></g></svg>